<svg xmlns="http://www.w3.org/2000/svg" width="128" height="128" viewBox="0 0 128 128">
  <title>MUSICAL NOTES</title>
  <g>
    <path d="M32.091,70.6A23.855,23.855,0,0,0,22.9,68.841c-9.164,0-16.593,4.7-16.593,10.486S13.735,89.813,22.9,89.813s16.592-4.7,16.592-10.486V32.2l42.028-6.723V6.306L32.091,14.214Z" fill="#f7b82d"/>
    <path d="M62.392,46.1v56.383a23.866,23.866,0,0,0-9.192-1.756c-9.163,0-16.592,4.7-16.592,10.486s7.429,10.486,16.592,10.486,16.593-4.7,16.593-10.486V76.179l44.5-7.119V92.992a23.854,23.854,0,0,0-9.192-1.757c-9.164,0-16.592,4.7-16.592,10.486s7.428,10.486,16.592,10.486,16.593-4.695,16.593-10.486V36.608Zm7.4,26.539V64.083l44.5-7.119v8.551Z" fill="#f74a37"/>
  </g>
</svg>
